<?xml version="1.0" encoding="UTF-8"?>
<svg width="48" height="48" viewBox="0 0 48 48" preserveAspectRatio="xMidYMid meet" 
     role="img" aria-label="Agricultural Management System Logo"
     xmlns="http://www.w3.org/2000/svg">
    <title>AMS Logo</title>
    <desc>Logo representing the Agricultural Management System featuring a modern agricultural motif</desc>
    
    <!-- Base circle representing the earth/field -->
    <circle cx="24" cy="24" r="22" 
            fill="none" 
            stroke="var(--theme-colors-primary)" 
            stroke-width="2"/>
    
    <!-- Stylized plant/growth symbol -->
    <path d="M24 38V24M24 24L18 18M24 24L30 18" 
          fill="none"
          stroke="var(--theme-colors-primary)"
          stroke-width="2"
          stroke-linecap="round"
          stroke-linejoin="round"/>
    
    <!-- Drone representation -->
    <path d="M16 12h16M19 9l-3 3l3 3M29 9l3 3l-3 3" 
          fill="none"
          stroke="var(--theme-colors-secondary)"
          stroke-width="2"
          stroke-linecap="round"
          stroke-linejoin="round"/>
    
    <!-- Technology circuit elements -->
    <path d="M12 24h4M32 24h4M24 12v4" 
          fill="none"
          stroke="var(--theme-colors-secondary)"
          stroke-width="2"
          stroke-linecap="round"/>
    
    <!-- Leaf elements -->
    <path d="M20 28c-2-2-2-4 0-6s4-2 6 0M28 28c2-2 2-4 0-6s-4-2-6 0" 
          fill="none"
          stroke="var(--theme-colors-primary)"
          stroke-width="2"
          stroke-linecap="round"/>
    
    <!-- Grid pattern suggesting precision agriculture -->
    <path d="M24 38l-4-4M24 38l4-4" 
          fill="none"
          stroke="var(--theme-colors-secondary)"
          stroke-width="1.5"
          stroke-linecap="round"
          opacity="0.8"/>
</svg>