<svg 
  xmlns="http://www.w3.org/2000/svg" 
  viewBox="0 0 24 24" 
  fill="currentColor" 
  aria-hidden="true"
  role="img"
  width="24" 
  height="24"
>
  <!-- Optimized drone body with propeller arms -->
  <path d="M12 8c-2.21 0-4 1.79-4 4s1.79 4 4 4 4-1.79 4-4-1.79-4-4-4zm0 6c-1.1 0-2-.9-2-2s.9-2 2-2 2 .9 2 2-.9 2-2 2z"/>
  
  <!-- Propellers - optimized paths for clean rendering -->
  <path d="M4 10c-1.1 0-2 .9-2 2s.9 2 2 2 2-.9 2-2-.9-2-2-2zm0 2.5c-.28 0-.5-.22-.5-.5s.22-.5.5-.5.5.22.5.5-.22.5-.5.5z"/>
  <path d="M20 10c-1.1 0-2 .9-2 2s.9 2 2 2 2-.9 2-2-.9-2-2-2zm0 2.5c-.28 0-.5-.22-.5-.5s.22-.5.5-.5.5.22.5.5-.22.5-.5.5z"/>
  <path d="M12 2c-1.1 0-2 .9-2 2s.9 2 2 2 2-.9 2-2-.9-2-2-2zm0 2.5c-.28 0-.5-.22-.5-.5s.22-.5.5-.5.5.22.5.5-.22.5-.5.5z"/>
  <path d="M12 18c-1.1 0-2 .9-2 2s.9 2 2 2 2-.9 2-2-.9-2-2-2zm0 2.5c-.28 0-.5-.22-.5-.5s.22-.5.5-.5.5.22.5.5-.22.5-.5.5z"/>
  
  <!-- Connection lines - thin strokes for clean appearance -->
  <path d="M5.5 12h5m3 0h5M12 5.5v5m0 3v5" stroke="currentColor" stroke-width="1" fill="none"/>
</svg>